<svg width="1440" height="1225" viewBox="0 0 1440 1225" fill="none" xmlns="http://www.w3.org/2000/svg">
<path fill-rule="evenodd" clip-rule="evenodd" d="M-189 6.09223C-123.5 -11.5 -94.499 19.0008 -54.5 19.0002C-14.501 18.9996 162.999 72.3712 323.999 66.848C484.999 61.3247 646 6.09209 807 17.1386C968 28.1851 1129 105.511 1290 127.604C1451 149.697 1449 121.569 1529.5 104.999C1610 88.4292 1681.1 155.636 1691.5 185.999C1722 274.999 1676.11 396.315 1666 579.499C1656.63 749.364 1753 844.999 1666 939.999C1579 1035 1593.5 1030.96 1468 1116C1342.5 1201.04 968 1224.08 807 1224.08C646 1224.08 445.999 1089 284.999 1089C123.999 1089 7.99994 1205.09 -204 1098.09C-416 991.092 -625.226 123.256 -189 6.09223Z" fill="#FFF0E5"/>
</svg>
